<!-- MusicSim Icon 192x192 - Modern Geometric Style -->
<svg width="192" height="192" viewBox="0 0 192 192" xmlns="http://www.w3.org/2000/svg">
  <defs>
    <!-- Modern gradient scheme -->
    <linearGradient id="neonGradient192" x1="0%" y1="0%" x2="100%" y2="100%">
      <stop offset="0%" style="stop-color:#ff006e;stop-opacity:1" />
      <stop offset="30%" style="stop-color:#8B2635;stop-opacity:1" />
      <stop offset="70%" style="stop-color:#3a86ff;stop-opacity:1" />
      <stop offset="100%" style="stop-color:#06ffa5;stop-opacity:1" />
    </linearGradient>
    
    <linearGradient id="accentGrad" x1="0%" y1="0%" x2="100%" y2="100%">
      <stop offset="0%" style="stop-color:#f59e0b"/>
      <stop offset="100%" style="stop-color:#fbbf24"/>
    </linearGradient>
    
    <linearGradient id="bgGrad" x1="0%" y1="0%" x2="100%" y2="100%">
      <stop offset="0%" style="stop-color:#1e293b"/>
      <stop offset="100%" style="stop-color:#0f172a"/>
    </linearGradient>
    
    <filter id="shadow">
      <feDropShadow dx="1" dy="2" stdDeviation="2" flood-color="#000000" flood-opacity="0.3"/>
    </filter>
  </defs>
  
  <!-- Background -->
  <circle cx="96" cy="96" r="88" fill="url(#bgGrad)" filter="url(#shadow)"/>
  <circle cx="96" cy="96" r="88" fill="none" stroke="url(#primaryGrad)" stroke-width="3"/>
  
  <!-- Musical staff -->
  <g opacity="0.3" stroke="#8B2635" stroke-width="1" fill="none">
    <line x1="30" y1="65" x2="162" y2="65"/>
    <line x1="30" y1="75" x2="162" y2="75"/>
    <line x1="30" y1="85" x2="162" y2="85"/>
    <line x1="30" y1="95" x2="162" y2="95"/>
  </g>
  
  <!-- Treble clef -->
  <path d="M50 75 C50 60, 65 60, 65 75 C65 90, 50 90, 50 105 C50 120, 65 120, 65 105 C65 95, 58 95, 58 90 C58 85, 65 85, 65 90" 
        fill="url(#primaryGrad)"/>
  
  <!-- Musical notes -->
  <g fill="url(#accentGrad)">
    <ellipse cx="105" cy="85" rx="4" ry="3"/>
    <rect x="108" y="70" width="2" height="15"/>
    <path d="M110 70 Q115 68 118 66 Q115 68 110 73 Z"/>
    
    <ellipse cx="125" cy="80" rx="3" ry="2"/>
    <rect x="127" y="68" width="2" height="12"/>
  </g>
  
  <!-- Sound waves -->
  <g stroke="url(#primaryGrad)" stroke-width="2" fill="none" opacity="0.6">
    <path d="M45 120 Q60 110, 75 120 T105 120 T135 115 T165 110"/>
    <path d="M45 130 Q60 125, 75 130 T105 130 T135 128 T165 125"/>
  </g>
  
  <!-- Bar chart -->
  <g fill="url(#accentGrad)" opacity="0.7">
    <rect x="55" y="140" width="8" height="15" rx="1"/>
    <rect x="68" y="135" width="8" height="20" rx="1"/>
    <rect x="81" y="130" width="8" height="25" rx="1"/>
    <rect x="94" y="125" width="8" height="30" rx="1"/>
    <rect x="107" y="120" width="8" height="35" rx="1"/>
  </g>
  
  <!-- Central "M" logo -->
  <path d="M75 45 L75 65 L85 55 L95 65 L95 45" 
        stroke="url(#primaryGrad)" 
        stroke-width="3" 
        fill="none" 
        stroke-linecap="round"/>
  
  <!-- Sparkles -->
  <g fill="#fbbf24" opacity="0.8">
    <circle cx="120" cy="50" r="1"/>
    <circle cx="70" cy="55" r="1.5"/>
    <path d="M135 65 L137 69 L139 65 L137 61 Z"/>
  </g>
</svg>