<!-- MusicSim Minimalist Geometric Icon 512x512 -->
<svg width="512" height="512" viewBox="0 0 512 512" xmlns="http://www.w3.org/2000/svg">
  <defs>
    <!-- Clean modern gradients -->
    <linearGradient id="modern-main" x1="0%" y1="0%" x2="100%" y2="100%">
      <stop offset="0%" style="stop-color:#dc2626"/>
      <stop offset="100%" style="stop-color:#991b1b"/>
    </linearGradient>
    
    <linearGradient id="modern-accent" x1="0%" y1="0%" x2="100%" y2="100%">
      <stop offset="0%" style="stop-color:#f093fb"/>
      <stop offset="100%" style="stop-color:#f5576c"/>
    </linearGradient>
    
    <linearGradient id="modern-gold" x1="0%" y1="0%" x2="100%" y2="100%">
      <stop offset="0%" style="stop-color:#ffecd2"/>
      <stop offset="100%" style="stop-color:#fcb69f"/>
    </linearGradient>
    
    <!-- Subtle shadow -->
    <filter id="subtle-shadow">
      <feDropShadow dx="0" dy="4" stdDeviation="8" flood-color="#000000" flood-opacity="0.1"/>
    </filter>
  </defs>
  
  <!-- Clean background -->
  <circle cx="256" cy="256" r="240" fill="#ffffff" filter="url(#subtle-shadow)"/>
  
  <!-- Geometric music symbol - Modern "M" made of triangles -->
  <g fill="url(#modern-main)">
    <!-- Left triangle -->
    <polygon points="180,300 180,200 230,250"/>
    
    <!-- Right triangle -->
    <polygon points="282,250 332,200 332,300"/>
    
    <!-- Center connecting triangle -->
    <polygon points="230,250 282,250 256,200"/>
  </g>
  
  <!-- Sound wave circles -->
  <g fill="none" stroke="url(#modern-accent)" stroke-width="8" opacity="0.6">
    <circle cx="256" cy="256" r="120"/>
    <circle cx="256" cy="256" r="140" opacity="0.4"/>
    <circle cx="256" cy="256" r="160" opacity="0.3"/>
  </g>
  
  <!-- Minimalist equalizer bars -->
  <g fill="url(#modern-gold)">
    <rect x="200" y="340" width="12" height="40" rx="6"/>
    <rect x="220" y="330" width="12" height="60" rx="6"/>
    <rect x="240" y="320" width="12" height="80" rx="6"/>
    <rect x="260" y="315" width="12" height="90" rx="6"/>
    <rect x="280" y="325" width="12" height="70" rx="6"/>
    <rect x="300" y="335" width="12" height="50" rx="6"/>
  </g>
  
  <!-- Business growth arrow -->
  <path d="M 350 200 L 390 160 L 390 180 L 420 180 L 420 140 L 440 140 L 410 170 L 410 190 L 380 190 L 380 210 Z" 
        fill="url(#modern-accent)" 
        opacity="0.8"/>
  
  <!-- Currency symbol -->
  <text x="370" y="250" font-family="system-ui, sans-serif" font-size="36" font-weight="300" fill="url(#modern-gold)">$</text>
  
  <!-- Dots for rhythm -->
  <g fill="url(#modern-main)" opacity="0.4">
    <circle cx="150" cy="150" r="8"/>
    <circle cx="180" cy="130" r="6"/>
    <circle cx="210" cy="140" r="10"/>
    
    <circle cx="350" cy="370" r="8"/>
    <circle cx="320" cy="390" r="6"/>
    <circle cx="290" cy="380" r="10"/>
  </g>
</svg>