<!-- MusicSim Icon 32x32 - Optimized for small sizes -->
<svg width="32" height="32" viewBox="0 0 32 32" xmlns="http://www.w3.org/2000/svg">
  <defs>
    <linearGradient id="iconGrad32" x1="0%" y1="0%" x2="100%" y2="100%">
      <stop offset="0%" style="stop-color:#8b5cf6"/>
      <stop offset="100%" style="stop-color:#c084fc"/>
    </linearGradient>
    
    <linearGradient id="bgGrad32" x1="0%" y1="0%" x2="100%" y2="100%">
      <stop offset="0%" style="stop-color:#1e293b"/>
      <stop offset="100%" style="stop-color:#0f172a"/>
    </linearGradient>
  </defs>
  
  <!-- Background circle -->
  <circle cx="16" cy="16" r="14" fill="url(#bgGrad32)"/>
  <circle cx="16" cy="16" r="14" fill="none" stroke="url(#iconGrad32)" stroke-width="1"/>
  
  <!-- Simplified treble clef -->
  <path d="M10 16 C10 12, 13 12, 13 16 C13 20, 10 20, 10 22 C10 24, 13 24, 13 22" 
        fill="url(#iconGrad32)" 
        stroke="none"/>
  
  <!-- Musical note -->
  <ellipse cx="20" cy="18" rx="2" ry="1.5" fill="url(#iconGrad32)"/>
  <rect x="21" y="14" width="1" height="4" fill="url(#iconGrad32)"/>
  <path d="M22 14 L24 13 L22 16" fill="url(#iconGrad32)"/>
  
  <!-- Sound wave bars -->
  <rect x="12" y="24" width="2" height="4" fill="#fbbf24" opacity="0.8"/>
  <rect x="15" y="22" width="2" height="6" fill="#fbbf24" opacity="0.8"/>
  <rect x="18" y="20" width="2" height="8" fill="#fbbf24" opacity="0.8"/>
  <rect x="21" y="23" width="2" height="5" fill="#fbbf24" opacity="0.8"/>
  
  <!-- Central "M" -->
  <path d="M6 8 L6 12 L8 10 L10 12 L10 8" 
        stroke="url(#iconGrad32)" 
        stroke-width="1" 
        fill="none" 
        stroke-linecap="round"/>
</svg>